<?xml version="1.0" encoding="utf-8"?>
<!-- Generator: Adobe Illustrator 21.1.0, SVG Export Plug-In . SVG Version: 6.00 Build 0)  -->
<svg version="1.1" id="logo" xmlns="http://www.w3.org/2000/svg" xmlns:xlink="http://www.w3.org/1999/xlink" x="0px" y="0px"
	 viewBox="0 0 200 100" style="enable-background:new 0 0 200 100;" xml:space="preserve">
<style type="text/css">
	.st0{fill:#FB80E5;}
	.st1{fill:#C90000;}
	.st2{fill:none;stroke:#000000;stroke-miterlimit:10;}
</style>
<g id="icon">
	<path id="left" class="st0" d="M47,73.6l5.3,2.5c0,0,7.6-6.9,5.8-21.1c0,0-1.3-7.9-6.1-13s-12.1-8-12.1-8s-8.6-3.2-19.1,1.3
		c0,0-6.9,3.3-12.3,12.4S8,70.6,8,70.6s3.7,10.1,13.8,13.5c0,0,12.5,4.5,20.4,0l-5.6-4.3c0,0-16.8,5.2-24.3-15.3
		c0,0-4.9-23.1,20.5-25.6c0,0,13-1.2,18.8,14.6C51.6,53.5,55.4,65.9,47,73.6z"/>
	<path id="right" class="st0" d="M43,45.1l-5.2-2.6c0,0-7.8,6.7-6.3,20.9c0,0,1.1,8,5.8,13.1s11.9,8.3,11.9,8.3s8.5,3.4,19.2-0.8
		c0,0,7-3.1,12.6-12.1s1-22.8,1-22.8S78.4,39,68.4,35.3c0,0-12.4-4.8-20.4-0.5l5.5,4.5c0,0,16.9-4.8,24,15.8c0,0,4.3,23.2-21.2,25.1
		c0,0-13,0.9-18.4-15.1C37.9,65.1,34.4,52.7,43,45.1z"/>
</g>
<path id="heart" class="st1" d="M44.7,12.2c0,0-7-7.3-11.8,1.6c0,0-2.5,5.1,3,10.9s9.4,8.8,9.4,8.8s8.5-6,10.8-10.4
	c0,0,3.9-6.1,1.4-10.1c0,0-3.4-5.5-8.1-3.2c0,0-3.3,2.2-3.5,2.9s-0.2,0.8-0.2,0.8L44.7,12.2z"/>
<g id="text">
	<g id="wedding">
		<path id="font_5_" class="st2" d="M92.5,51.6c0,0,3.8,8.6,0.5,18.2c0,0,7-15.7,10.1-16.3c0,0-1.5,12.8,2.8,16.3
			c0,0,3.2,0.7,4.9-5.6c1.7-6.2,2.5-11.8,1.7-13.3"/>
		<path id="font_4_" class="st2" d="M115.5,66c0,0,4.9-2.3,4.8-5.6s-3.8,1.9-3.8,1.9s-3.8,8.1,2.4,7.5c0,0,5.1-2,5-3.7
			c-0.1-1,0.1,3.1,0.4,2.9c0,0,3.4,0.1,7.2-5.8c3.8-5.9,4-11.8,4-11.8s0.3-6.4-2.9-0.6s-3.2,18.4,0.3,18.9c0,0,2.1-1.4,4.4-4
			c0.1-0.1,0.3-0.3,0.4-0.4c0.6-0.7,1.3-1.5,1.9-2.4c3.1-4.4,4.6-0.2,4.6-0.2s-4.3,8.3-6.5,5.8c0,0-0.7-1.6,0-3.2"/>
		<path id="font_3_" class="st2" d="M123.9,67.3c0,0-0.6-6.5,6.8-5.9"/>
		<path id="font_1_" class="st2" d="M144.6,62.7c0,0,0.4-13.2,3.8-13.9c3.5-0.7-2.8,13.2-2.8,13.2s-3.3,5.3-0.4,7.8
			c2.8,2.5,7.3-7.7,7.3-7.7s-2.2,8.9,0.7,8.1c3-0.7,5-4.6,5-4.6l1.7-6.5l-2.4,10.6c0,0,6.2-11.5,6.8-8.5c0.6,3-0.2,9.5,2,7.9
			c2.2-1.7,4.1-4.1,4.1-4.1s4.1-8.3,9.1-4.7"/>
		<path id="font" class="st2" d="M170.5,65.1c0,0-0.6,7.9,4.8,1.1c5.4-6.8,3.1-0.1,3.1-0.1s-0.6,15.7-7.3,12.8"/>
		<circle id="font_2_" cx="153.4" cy="57.9" r="1"/>
	</g>
	<g id="rich">
		<path id="font_12_" class="st2" d="M110.6,26.5c0,0-3.4,0-3.3,13c0,0-1,8.9-7.5,8.6c-6.5-0.3-5.1-5.8-5.1-5.8l0.8-1.9"/>
		<path id="font_11_" class="st2" d="M107.8,35.1c0,0,6-0.4,6.2-6.2c0.3-5.8-7.3-6.6-7.3-6.6S94.3,21.5,95,31.7c0,0,0.7,8.6,8.2,5.6
			"/>
		<path id="font_10_" class="st2" d="M109.6,34.7c0,0,2.9-0.5,3,6.9c0,0-0.8,4.9,5,4.5"/>
		<path id="font_9_" class="st2" d="M115.4,36.2v5.4c0,0,1,2.6,2.9,0c0,0-1.8-4.1,0.3-4.7c1.8-0.5,2.1-0.4,2.1-0.4l0.5,1.4"/>
		<path id="font_8_" class="st2" d="M118.5,41.9c0,0,2.5,2.7,4.2-1l0.9-10.6c0,0,1.1-2.7,2.4-1.5c1.3,1.2-1.2,4.6-1.2,4.6
			s-5.9,2.9-7.5-5.4c-0.1-0.3-0.5-7.9,6.8-5.1"/>
		<path id="font_7_" class="st2" d="M122.3,41.5c0,0,4.7-9.9,4.6-4.6s0.3,5.8,0.3,5.8"/>
		<ellipse id="font_6_" cx="116.1" cy="33.8" rx="0.7" ry="0.9"/>
	</g>
</g>
</svg>
